<svg xmlns="http://www.w3.org/2000/svg" viewBox="0 0 48 48" fill="none">
  <path d="M24 2.5 L42 9 V24 C42 35.5 34.5 42.5 24 45.5 C13.5 42.5 6 35.5 6 24 V9 Z" fill="#0A2540"/>
  <path d="M16.5 14.5 C14.5 14.5 13 16 13 18.5 V21 C13 22.5 13.4 24 14 25.2 L15.5 30 C15.8 31 16.3 31.5 17 31.5 C17.7 31.5 18.1 31 18.4 30 L19.5 26 C19.7 25.2 20.2 24.8 21 24.8 C21.8 24.8 22.3 25.2 22.5 26 L23.6 30 C23.9 31 24.3 31.5 25 31.5 C25.7 31.5 26.2 31 26.5 30 L28 25.2 C28.6 24 29 22.5 29 21 V18.5 C29 16 27.5 14.5 25.5 14.5 C24.3 14.5 23.4 15 22.5 15.5 C22 15.8 21.5 16 21 16 C20.5 16 20 15.8 19.5 15.5 C18.6 15 17.7 14.5 16.5 14.5 Z" fill="white"/>
  <path d="M34.5 9 L35.3 11.5 L37.8 12.3 L35.3 13.1 L34.5 15.6 L33.7 13.1 L31.2 12.3 L33.7 11.5 Z" fill="#00D4B2"/>
</svg>
